<svg xmlns="http://www.w3.org/2000/svg" width="140" height="28" viewBox="0 0 140 28" fill="none">
<path d="M61.5169 11.0695C60.5901 10.5739 59.5224 10.3256 58.3119 10.3256C57.1013 10.3256 56.0075 10.5739 55.0741 11.0695C54.1408 11.566 53.4147 12.2623 52.8976 13.1592C52.3796 14.0562 52.1211 15.0884 52.1211 16.2551C52.1211 17.4218 52.3796 18.4792 52.8976 19.3836C53.4147 20.288 54.1408 20.988 55.0741 21.4836C56.0075 21.9802 57.0864 22.2275 58.3119 22.2275C59.5373 22.2275 60.5911 21.9792 61.5169 21.4836C62.4428 20.988 63.1652 20.288 63.6832 19.3836C64.2012 18.4792 64.4597 17.4367 64.4597 16.2551C64.4597 15.0735 64.2012 14.0562 63.6832 13.1592C63.1652 12.2623 62.4437 11.566 61.5169 11.0695ZM60.6751 18.8582C60.0628 19.5143 59.2751 19.8428 58.3119 19.8428C57.3487 19.8428 56.518 19.5152 55.9057 18.8582C55.2925 18.202 54.9864 17.349 54.9864 16.298C54.9864 15.2471 55.2925 14.395 55.9057 13.7388C56.518 13.0827 57.3207 12.7542 58.3119 12.7542C59.3031 12.7542 60.0619 13.0827 60.6751 13.7388C61.2873 14.395 61.5935 15.249 61.5935 16.298C61.5935 17.3471 61.2873 18.2011 60.6751 18.8582ZM77.1494 11.5184C77.9222 12.3276 78.3085 13.4262 78.3085 14.8112V22.2275H75.4423V15.6419C75.4423 14.8252 75.209 14.1803 74.7423 13.7052C74.2756 13.232 73.6409 12.994 72.8392 12.994C71.8909 13.009 71.1433 13.33 70.5964 13.9563C70.0495 14.5835 69.776 15.3862 69.776 16.3634V22.2266H66.9321V10.3247H69.776V12.6002C70.5777 11.0984 71.9777 10.3322 73.976 10.3032C75.3181 10.3032 76.3747 10.7083 77.1484 11.5175L77.1494 11.5184ZM49.4732 17.6551L51.2017 19.5806C50.3991 20.3972 49.4657 21.0431 48.4008 21.5172C47.3359 21.9914 46.2569 22.2284 45.1631 22.2284C43.6893 22.2284 42.3407 21.8784 41.1161 21.1784C39.8907 20.4784 38.9284 19.5264 38.2284 18.3234C37.5284 17.1203 37.1784 15.7894 37.1784 14.3306C37.1784 12.8718 37.5359 11.5446 38.2508 10.349C38.9648 9.15338 39.9392 8.21258 41.1712 7.52658C42.4032 6.84152 43.7705 6.49805 45.2732 6.49805C46.3671 6.49805 47.4395 6.71645 48.4895 7.15418C49.5395 7.59191 50.4364 8.19765 51.1803 8.97045L49.4741 11.1143C48.9347 10.4871 48.2963 9.99898 47.5599 9.64898C46.8235 9.29898 46.0759 9.12351 45.3171 9.12351C44.3688 9.12351 43.5017 9.34938 42.714 9.80205C41.9263 10.2547 41.3065 10.8782 40.8548 11.6724C40.4021 12.4676 40.1763 13.3394 40.1763 14.2867C40.1763 15.234 40.4021 16.1067 40.8548 16.901C41.3065 17.6962 41.9272 18.3234 42.714 18.7826C43.5017 19.2418 44.3697 19.4714 45.3171 19.4714C46.046 19.4714 46.7796 19.3108 47.516 18.9898C48.2524 18.6687 48.9048 18.2244 49.4741 17.6551H49.4732ZM91.7196 11.5184C92.4924 12.3276 92.8788 13.4262 92.8788 14.8112V22.2275H90.0126V15.6419C90.0126 14.8252 89.7792 14.1803 89.3125 13.7052C88.8459 13.232 88.2112 12.994 87.4095 12.994C86.4612 13.009 85.7136 13.33 85.1667 13.9563C84.6197 14.5835 84.3463 15.3862 84.3463 16.3634V22.2266H81.5024V10.3247H84.3463V12.6002C85.148 11.0984 86.548 10.3322 88.5463 10.3032C89.8884 10.3032 90.945 10.7083 91.7187 11.5175L91.7196 11.5184ZM139.962 10.3042V13.0603C138.751 12.9875 137.785 13.2684 137.063 13.9031C136.34 14.5378 135.98 15.3946 135.98 16.4735V22.2275H133.136V10.3256H135.98V12.6664C136.374 11.9086 136.91 11.328 137.588 10.9267C138.267 10.5254 139.057 10.3182 139.962 10.3032V10.3042ZM126.725 10.3266H129.591V22.2284H126.725V19.953C125.937 21.4706 124.581 22.2284 122.656 22.2284C121.344 22.2284 120.308 21.8271 119.55 21.0254C118.791 20.2236 118.412 19.1298 118.412 17.7438V10.3275H121.278V16.9131C121.278 17.7298 121.5 18.3719 121.946 18.8386C122.391 19.3053 123.007 19.5386 123.795 19.5386C124.699 19.5246 125.414 19.2035 125.938 18.5763C126.464 17.9491 126.726 17.1539 126.726 16.1916V10.3284L126.725 10.3266ZM113.368 11.0695C112.441 10.5739 111.374 10.3256 110.163 10.3256C108.953 10.3256 107.859 10.5739 106.925 11.0695C105.992 11.566 105.266 12.2623 104.749 13.1592C104.231 14.0562 103.972 15.0884 103.972 16.2551C103.972 17.4218 104.231 18.4792 104.749 19.3836C105.266 20.288 105.992 20.988 106.925 21.4836C107.859 21.9802 108.938 22.2275 110.163 22.2275C111.389 22.2275 112.441 21.9792 113.368 21.4836C114.294 20.988 115.017 20.288 115.535 19.3836C116.052 18.4792 116.311 17.4367 116.311 16.2551C116.311 15.0735 116.052 14.0562 115.535 13.1592C115.017 12.2623 114.295 11.566 113.368 11.0695ZM112.526 18.8582C111.914 19.5143 111.126 19.8428 110.163 19.8428C109.2 19.8428 108.369 19.5152 107.757 18.8582C107.145 18.202 106.839 17.349 106.839 16.298C106.839 15.2471 107.145 14.395 107.757 13.7388C108.369 13.0827 109.172 12.7542 110.163 12.7542C111.154 12.7542 111.913 13.0827 112.526 13.7388C113.139 14.395 113.445 15.249 113.445 16.298C113.445 17.3471 113.139 18.2011 112.526 18.8582ZM102.265 19.252L102.921 21.3959C101.988 21.9643 101.01 22.249 99.9899 22.249C98.9698 22.249 98.1587 21.954 97.5175 21.3632C96.8754 20.7724 96.5543 19.9016 96.5543 18.749V12.9735H94.9135L94.892 10.895H96.5543V7.67871H99.3767V10.895H102.725V12.9735H99.3767V18.2459C99.3767 18.7854 99.4784 19.168 99.6828 19.3939C99.8872 19.6207 100.193 19.7327 100.602 19.7327C101.04 19.7327 101.594 19.5722 102.264 19.2511L102.265 19.252Z" fill="#ffffff"/>
<path d="M31.0548 27.0564L16.1663 18.8888V1.88721L31.0548 27.0564Z" fill="#18B0F5"/>
<path d="M16.1663 0L0 28H32.3316L16.1653 0H16.1663ZM15.5372 18.3036L3.89947 25.0227L15.5372 4.86547V18.3036ZM16.1663 19.3937L27.804 26.1128H4.52854L16.1663 19.3937ZM16.7953 18.3036V4.86547L28.4331 25.0227L16.7953 18.3036Z" fill="#ffffff"/>
</svg>